<?xml version="1.0" standalone="no"?><!-- Generator: Gravit.io --><svg xmlns="http://www.w3.org/2000/svg" xmlns:xlink="http://www.w3.org/1999/xlink" style="isolation:isolate" viewBox="0 0 370 370" width="370" height="370"><defs><clipPath id="_clipPath_Eq7agV6ix5kVRJTIelUOuLx8Mbtcj3sv"><rect width="370" height="370"/></clipPath></defs><g clip-path="url(#_clipPath_Eq7agV6ix5kVRJTIelUOuLx8Mbtcj3sv)"><path d=" M 162.037 336.495 L 195.254 369.711 L 155.105 369.711 L 111.78 326.674 L 137.775 326.674 C 146.729 326.674 155.683 330.429 162.037 336.495 Z  M 150.484 42.459 L 151.928 42.459 L 153.372 42.459 L 154.817 42.748 L 155.972 43.037 L 157.127 43.326 L 158.283 43.614 L 159.438 44.192 L 160.593 44.77 L 161.749 45.347 L 162.904 45.925 L 164.059 46.503 L 165.215 47.08 L 166.081 47.947 L 166.948 48.813 L 167.814 49.68 L 168.681 50.546 L 169.547 51.413 L 170.414 52.279 L 171.28 53.146 L 172.147 54.301 L 172.724 55.457 L 173.302 56.612 L 173.88 57.767 L 174.457 58.923 L 175.035 60.078 L 175.324 61.233 L 175.613 62.389 L 175.902 63.544 L 176.19 64.699 L 176.479 66.144 L 176.479 67.588 L 176.479 69.032 C 176.479 83.474 164.348 95.027 150.195 95.027 C 135.753 95.027 124.2 83.474 124.2 69.032 C 124.2 54.59 136.331 42.459 150.484 42.459 Z  M 323.497 281.616 L 314.254 257.065 C 310.211 246.956 300.968 240.023 289.415 240.023 L 285.371 240.023 L 285.371 28.595 L 84.629 28.595 L 84.629 145.574 L 110.913 145.574 L 140.952 108.025 C 147.018 101.093 156.261 96.472 166.37 96.472 L 230.492 96.472 C 240.601 96.472 249.555 101.959 254.176 110.913 L 273.24 147.018 C 274.106 148.462 274.684 150.195 274.684 152.506 C 274.684 158.86 269.196 164.637 262.553 164.637 C 257.354 164.637 253.888 162.326 251.577 158.283 L 234.536 125.355 L 206.807 125.355 L 228.181 178.501 L 234.536 246.378 L 289.415 246.378 C 298.08 246.378 305.012 251.866 308.478 259.375 L 314.543 274.973 L 219.805 274.973 C 212.873 274.973 206.807 269.774 206.518 262.842 L 200.164 203.341 L 149.329 308.767 C 146.44 314.832 140.086 318.876 132.576 318.876 L 108.025 318.876 L 170.414 189.766 L 151.062 141.241 L 132.576 163.77 C 127.955 169.836 120.156 173.88 111.78 173.88 L 84.629 173.88 L 84.629 326.386 L 127.955 369.422 L 0 369.422 L 0 0 L 370 0 L 370 370 L 328.407 370 L 285.371 326.963 L 285.371 281.616 L 323.497 281.616 Z " fill="rgb(0,0,0)"/></g></svg>